<?xml version="1.0" standalone="no"?>
<!DOCTYPE svg PUBLIC "-//W3C//DTD SVG 20010904//EN"
 "http://www.w3.org/TR/2001/REC-SVG-20010904/DTD/svg10.dtd">
<svg version="1.0" xmlns="http://www.w3.org/2000/svg"
 width="661.000000pt" height="661.000000pt" viewBox="0 0 661.000000 661.000000"
 preserveAspectRatio="xMidYMid meet">
<metadata>
Created by potrace 1.11, written by Peter Selinger 2001-2013
</metadata>
<g transform="translate(0.000000,661.000000) scale(0.100000,-0.100000)"
fill="#000000" stroke="none">
<path d="M2480 5245 c-272 -45 -487 -154 -612 -310 -82 -101 -178 -313 -178
-391 0 -23 -2 -24 -87 -24 -208 0 -349 -73 -422 -218 -32 -64 -55 -169 -46
-210 5 -25 2 -29 -42 -44 -185 -66 -256 -217 -207 -441 l16 -73 -38 -60 c-138
-216 -196 -533 -139 -755 63 -241 278 -429 555 -485 114 -23 262 -15 385 21
82 24 282 115 397 181 l46 26 44 -30 c120 -82 243 -125 363 -125 138 -1 255
47 418 169 49 36 89 65 91 63 1 -2 12 -21 25 -41 51 -85 124 -123 222 -116 58
4 59 4 59 -21 1 -80 81 -165 220 -233 l85 -42 48 -98 c58 -118 137 -226 249
-337 101 -102 178 -158 289 -210 125 -60 193 -75 334 -75 93 0 138 5 199 22
105 30 209 79 301 143 75 52 211 179 261 244 19 25 42 39 92 56 37 12 112 44
167 72 173 89 292 232 326 394 26 128 -5 319 -81 496 -22 51 -40 96 -40 101 0
4 14 24 31 44 18 20 44 61 58 92 23 49 26 67 26 165 0 94 -3 118 -24 162 -25
57 -95 128 -139 144 l-28 9 1 123 c0 107 -3 128 -24 174 -55 123 -222 225
-408 248 l-51 7 -12 66 c-45 263 -180 445 -396 535 -91 38 -160 51 -269 52
l-100 0 -2 58 c-3 157 -178 333 -408 413 -109 38 -265 41 -369 6 -86 -29 -157
-64 -218 -109 l-48 -35 -47 35 c-101 73 -232 125 -388 152 -127 23 -379 28
-485 10z"/>
</g>
</svg>
